<svg width="56" height="35" viewBox="0 0 56 35" fill="none" xmlns="http://www.w3.org/2000/svg">
<g filter="url(#filter0_d_13_637)">
<path d="M27.99 0C24.4187 0 21.5114 2.93388 21.5114 6.52034C21.5114 8.78918 22.6765 10.7925 24.4358 11.9602C22.3109 12.6706 20.4723 13.9985 19.1238 15.7357C18.3782 15.1622 17.5451 14.701 16.647 14.3705C18.0089 13.3595 18.8989 11.7353 18.8989 9.90998C18.8989 6.86823 16.4388 4.37819 13.4155 4.37819C10.3922 4.37819 7.93208 6.86823 7.93208 9.90998C7.93208 11.7364 8.82277 13.3613 10.1858 14.3723C6.57721 15.7039 4 19.1903 4 23.2933V26.1754C4.00037 26.3951 4.08826 26.6056 4.24409 26.7604C4.39992 26.9155 4.61078 27.0019 4.8305 27.0011H17.4755C17.5061 27.0045 17.5368 27.0063 17.5674 27.0059H38.4133C38.4439 27.0063 38.4749 27.0045 38.5052 27.0011H51.1511C51.6057 26.9993 51.9739 26.6304 51.975 26.1754V23.2933C51.975 19.1903 49.4022 15.7039 45.7955 14.3719C47.1585 13.3613 48.0492 11.736 48.0492 9.9096C48.0492 6.86785 45.5892 4.37781 42.5658 4.37781C39.5426 4.37781 37.0824 6.86785 37.0824 9.9096C37.0824 11.735 37.9728 13.3594 39.3346 14.3701C38.4347 14.7014 37.6013 15.1641 36.8546 15.739C35.5067 14.0008 33.6707 12.6711 31.5459 11.9602C33.3047 10.7925 34.4703 8.78918 34.4703 6.52034C34.4703 2.93388 31.5612 0 27.99 0ZM27.99 1.65436C30.661 1.65436 32.8142 3.82204 32.8142 6.52034C32.8142 9.19756 30.6945 11.3442 28.0531 11.3786C28.0321 11.3786 28.0114 11.3756 27.99 11.3756C27.9686 11.3756 27.9483 11.3786 27.9268 11.3786C25.2854 11.3446 23.1672 9.19766 23.1672 6.52034C23.1672 3.82166 25.319 1.65436 27.99 1.65436ZM13.4156 6.03245C15.5348 6.03245 17.2446 7.75251 17.2446 9.90988C17.2446 12.0528 15.557 13.7655 13.4576 13.7887C13.4436 13.7887 13.4299 13.7873 13.4155 13.7873C13.4015 13.7873 13.3878 13.7887 13.3734 13.7887C11.2741 13.7655 9.58647 12.0524 9.58647 9.90988C9.58647 7.7526 11.2963 6.03245 13.4156 6.03245ZM42.5653 6.03245C44.6846 6.03245 46.3944 7.75251 46.3944 9.90988C46.3944 12.0528 44.7067 13.7655 42.6074 13.7887C42.5934 13.7887 42.5797 13.7873 42.5653 13.7873C42.5513 13.7873 42.5376 13.7887 42.5232 13.7887C40.4239 13.7655 38.7363 12.0524 38.7363 9.90988C38.7363 7.7526 40.4461 6.03245 42.5653 6.03245ZM27.9266 13.0328C27.9477 13.0332 27.9684 13.0358 27.9898 13.0358C28.0108 13.0358 28.0315 13.0328 28.0529 13.0328C33.3502 13.0668 37.5896 17.3427 37.5896 22.6952L37.5892 25.3511H18.3911V22.6952C18.3911 17.3422 22.6301 13.0669 27.9266 13.0328ZM13.3522 15.445C13.3733 15.4454 13.394 15.4479 13.4154 15.4479C13.4368 15.4479 13.4571 15.445 13.4785 15.445C15.2702 15.4594 16.9054 16.0772 18.2074 17.1108C17.2757 18.7593 16.7369 20.6621 16.7369 22.6957V25.3452H5.65369V23.2932C5.65369 18.9431 9.07415 15.4793 13.3522 15.445ZM42.502 15.445C42.5234 15.4454 42.5437 15.4479 42.5652 15.4479C42.5866 15.4479 42.6069 15.445 42.6283 15.445C46.9064 15.479 50.3266 18.9435 50.3266 23.2935V25.3452H39.2377L39.2374 22.6957C39.2374 20.6632 38.7 18.7618 37.7702 17.1137C39.0726 16.0787 40.7088 15.4594 42.502 15.445Z" fill="#103E13"/>
</g>
<defs>
<filter id="filter0_d_13_637" x="0" y="0" width="55.975" height="35.006" filterUnits="userSpaceOnUse" color-interpolation-filters="sRGB">
<feFlood flood-opacity="0" result="BackgroundImageFix"/>
<feColorMatrix in="SourceAlpha" type="matrix" values="0 0 0 0 0 0 0 0 0 0 0 0 0 0 0 0 0 0 127 0" result="hardAlpha"/>
<feOffset dy="4"/>
<feGaussianBlur stdDeviation="2"/>
<feComposite in2="hardAlpha" operator="out"/>
<feColorMatrix type="matrix" values="0 0 0 0 0 0 0 0 0 0 0 0 0 0 0 0 0 0 0.25 0"/>
<feBlend mode="normal" in2="BackgroundImageFix" result="effect1_dropShadow_13_637"/>
<feBlend mode="normal" in="SourceGraphic" in2="effect1_dropShadow_13_637" result="shape"/>
</filter>
</defs>
</svg>
